<?xml version="1.0" encoding="UTF-8"?>
<svg version="1.1" xmlns="http://www.w3.org/2000/svg" width="194" height="194">
<path d="M0 0 C64.02 0 128.04 0 194 0 C194 64.02 194 128.04 194 194 C129.98 194 65.96 194 0 194 C0 129.98 0 65.96 0 0 Z " fill="#282727" transform="translate(0,0)"/>
<path d="M0 0 C0 0.66 0 1.32 0 2 C0.87269531 1.95230469 1.74539062 1.90460937 2.64453125 1.85546875 C6.25997545 2.01119801 8.42278538 2.80262516 11.6875 4.3125 C16.60759347 6.48763472 21.38663499 8.02610385 26.625 9.2265625 C29 10 29 10 31.015625 11.54296875 C33.36657437 13.26915795 34.86895235 13.47565826 37.75 13.6875 C38.94882812 13.78611328 38.94882812 13.78611328 40.171875 13.88671875 C40.77515625 13.92410156 41.3784375 13.96148437 42 14 C42 14.66 42 15.32 42 16 C44.31 16 46.62 16 49 16 C49 16.66 49 17.32 49 18 C50.65 18 52.3 18 54 18 C54 18.66 54 19.32 54 20 C54.680625 20.12375 55.36125 20.2475 56.0625 20.375 C62.26515021 21.69471281 68.09889173 23.72237927 74 26 C74 29.3 74 32.6 74 36 C60.5234375 40.4921875 60.5234375 40.4921875 58.15771484 41.27685547 C56.37019817 41.87593042 54.59025729 42.49755625 52.8125 43.125 C49.76013475 44.07462474 46.78224987 44.63387224 43.625 45.125 C42.56539062 45.29257813 41.50578125 45.46015625 40.4140625 45.6328125 C39.61742187 45.75398438 38.82078125 45.87515625 38 46 C38 46.66 38 47.32 38 48 C35.04329782 49.00486895 32.08438423 50.00306024 29.125 51 C28.28324219 51.28617188 27.44148438 51.57234375 26.57421875 51.8671875 C25.76855469 52.13789062 24.96289062 52.40859375 24.1328125 52.6875 C23.38918457 52.93886719 22.64555664 53.19023438 21.87939453 53.44921875 C20 54 20 54 18 54 C18 54.66 18 55.32 18 56 C15.69 56 13.38 56 11 56 C11 56.66 11 57.32 11 58 C7.37 58.66 3.74 59.32 0 60 C0 60.66 0 61.32 0 62 C-1.98 62 -3.96 62 -6 62 C-6 62.66 -6 63.32 -6 64 C-11.73842251 64.20413361 -16.60539047 64.27141454 -22 62 C-22 61.01 -22 60.02 -22 59 C-22.65226562 58.95101562 -23.30453125 58.90203125 -23.9765625 58.8515625 C-28.93279853 58.42757771 -33.33019451 57.84334427 -38 56 C-38 55.34 -38 54.68 -38 54 C-38.86625 53.855625 -39.7325 53.71125 -40.625 53.5625 C-42.875 53.1875 -45.125 52.8125 -47.375 52.4375 C-48.24125 52.293125 -49.1075 52.14875 -50 52 C-50 51.34 -50 50.68 -50 50 C-51.65 49.67 -53.3 49.34 -55 49 C-55 48.34 -55 47.68 -55 47 C-57.97 46.34 -60.94 45.68 -64 45 C-64 44.34 -64 43.68 -64 43 C-64.86109375 42.8659375 -65.7221875 42.731875 -66.609375 42.59375 C-69.86914173 42.02291527 -73.04113295 41.306248 -76.25 40.5 C-77.28640625 40.2421875 -78.3228125 39.984375 -79.390625 39.71875 C-82 39 -82 39 -84 38 C-84 37.34 -84 36.68 -84 36 C-87.3 36 -90.6 36 -94 36 C-94 35.34 -94 34.68 -94 34 C-94.66 34 -95.32 34 -96 34 C-96.375 31.25 -96.375 31.25 -96 28 C-92.87476431 25.36091208 -91.13534147 24 -87 24 C-87 23.34 -87 22.68 -87 22 C-84.69 22 -82.38 22 -80 22 C-80 21.34 -80 20.68 -80 20 C-78.27143541 19.5186659 -76.54211929 19.04003029 -74.8125 18.5625 C-73.84957031 18.29566406 -72.88664062 18.02882813 -71.89453125 17.75390625 C-69.27336303 17.07119982 -66.661065 16.50107805 -64 16 C-64 15.34 -64 14.68 -64 14 C-59.47290555 12.3321231 -55.00703639 11.37755465 -50.26953125 10.5625 C-47.74097281 10.07160226 -47.74097281 10.07160226 -45 8 C-42.40112652 7.1779368 -39.81295218 6.41311003 -37.1875 5.6875 C-31.4931969 4.08079101 -25.96690055 2.29393831 -20.4375 0.1875 C-12.8892435 -2.56203673 -7.64141298 -3.05656519 0 0 Z " fill="#FC0201" transform="translate(106,46)"/>
<path d="M0 0 C0 8.25 0 16.5 0 25 C-0.66 25 -1.32 25 -2 25 C-2 25.66 -2 26.32 -2 27 C-5.11667881 30.98934888 -8.19288649 31.79822162 -13 33 C-13.64445068 33.3304834 -14.28890137 33.6609668 -14.95288086 34.00146484 C-31.36317089 42.00600703 -59.44688677 39.62952356 -77 37 C-77.495 36.505 -77.495 36.505 -78 36 C-79.63802872 35.63021574 -81.28587044 35.30331217 -82.9375 35 C-87.78587699 34.1070615 -87.78587699 34.1070615 -90 33 C-90 32.01 -90 31.02 -90 30 C-90.66 30 -91.32 30 -92 30 C-92 29.34 -92 28.68 -92 28 C-92.66 28 -93.32 28 -94 28 C-94 27.34 -94 26.68 -94 26 C-95.32 26 -96.64 26 -98 26 C-99.00005304 22.99984088 -99.11575585 21.02576244 -99.09765625 17.89453125 C-99.09443359 16.91162109 -99.09121094 15.92871094 -99.08789062 14.91601562 C-99.07951172 13.89185547 -99.07113281 12.86769531 -99.0625 11.8125 C-99.05798828 10.77673828 -99.05347656 9.74097656 -99.04882812 8.67382812 C-99.0370401 6.11582734 -99.02058515 3.55794267 -99 1 C-94.53678435 1.52411061 -90.69900733 2.305901 -86.5625 4.0625 C-85.69753906 4.42472656 -84.83257812 4.78695312 -83.94140625 5.16015625 C-83.30074219 5.43730469 -82.66007812 5.71445313 -82 6 C-82 6.66 -82 7.32 -82 8 C-81.20335938 8.12117188 -80.40671875 8.24234375 -79.5859375 8.3671875 C-69.06151142 10.03163445 -69.06151142 10.03163445 -64 12 C-64 12.66 -64 13.32 -64 14 C-55.29833113 15.03679459 -46.6477286 15.82057444 -38 14 C-38 13.34 -38 12.68 -38 12 C-36.68 11.67 -35.36 11.34 -34 11 C-34 10.34 -34 9.68 -34 9 C-30.55529653 7.7082362 -27.33079016 6.84449818 -23.6875 6.4375 C-20.20356334 6.40985408 -20.20356334 6.40985408 -19 5 C-17.33382885 4.95936168 -15.66611905 4.957279 -14 5 C-14 4.34 -14 3.68 -14 3 C-12.60764957 2.49038154 -11.21090882 1.99275091 -9.8125 1.5 C-9.03519531 1.2215625 -8.25789063 0.943125 -7.45703125 0.65625 C-5 0 -5 0 0 0 Z " fill="#F90302" transform="translate(146,105)"/>
<path d="M0 0 C2.64 0 5.28 0 8 0 C8 14.52 8 29.04 8 44 C8.66 44 9.32 44 10 44 C10 44.66 10 45.32 10 46 C10.66 46 11.32 46 12 46 C12.08114106 47.77007714 12.13925505 49.54122098 12.1875 51.3125 C12.23970703 52.79169922 12.23970703 52.79169922 12.29296875 54.30078125 C12 57 12 57 10.51367188 58.26757812 C8.25293989 60.85502234 8.56493691 63.0297887 8.48828125 66.41796875 C8.45283203 67.67158203 8.41738281 68.92519531 8.38085938 70.21679688 C8.35830078 71.52712891 8.33574219 72.83746094 8.3125 74.1875 C8.27932334 75.52282013 8.24483334 76.85810832 8.20898438 78.19335938 C8.12637943 81.46215504 8.05726771 84.73067812 8 88 C7.34 88 6.68 88 6 88 C6 88.66 6 89.32 6 90 C3.03 90 0.06 90 -3 90 C-4.44962183 87.10075634 -4.22126481 84.47699645 -4.31640625 81.2421875 C-4.33718735 80.57913605 -4.35796844 79.91608459 -4.37937927 79.23294067 C-4.44479231 77.11373306 -4.50372105 74.994401 -4.5625 72.875 C-4.60569309 71.43878919 -4.64930764 70.00259098 -4.69335938 68.56640625 C-4.80046499 65.04440406 -4.90175575 61.52226175 -5 58 C-5.99 58 -6.98 58 -8 58 C-8 54.04 -8 50.08 -8 46 C-7.34 46 -6.68 46 -6 46 C-6 45.34 -6 44.68 -6 44 C-5.34 44 -4.68 44 -4 44 C-4 30.14 -4 16.28 -4 2 C-2.68 2 -1.36 2 0 2 C0 1.34 0 0.68 0 0 Z " fill="#F40604" transform="translate(162,96)"/>
<path d="M0 0 C-2.83395931 2.32789515 -4.29511572 3.07377893 -8 4 C-8.33 15.22 -8.66 26.44 -9 38 C-9.33 38 -9.66 38 -10 38 C-10 30.41 -10 22.82 -10 15 C-13.63 15.99 -17.26 16.98 -21 18 C-21.99 18 -22.98 18 -24 18 C-24 18.66 -24 19.32 -24 20 C-30.46309126 22.38113889 -37.10266291 24 -44 24 C-44 24.66 -44 25.32 -44 26 C-45.32 26.33 -46.64 26.66 -48 27 C-48 27.66 -48 28.32 -48 29 C-56.59079005 32.61717476 -65.20387061 31.09609892 -74 29 C-74 28.34 -74 27.68 -74 27 C-74.680625 27.04125 -75.36125 27.0825 -76.0625 27.125 C-81.60278872 26.88924303 -86.78644268 24.78023908 -92 23 C-92 22.34 -92 21.68 -92 21 C-92.86625 20.896875 -93.7325 20.79375 -94.625 20.6875 C-98.18399879 19.96251876 -100.7805025 18.64399872 -104 17 C-105.65 16.67 -107.3 16.34 -109 16 C-108.67 24.25 -108.34 32.5 -108 41 C-106.68 41 -105.36 41 -104 41 C-104 41.66 -104 42.32 -104 43 C-103.34 43 -102.68 43 -102 43 C-102 43.66 -102 44.32 -102 45 C-101.34 45.33 -100.68 45.66 -100 46 C-101.32 46 -102.64 46 -104 46 C-104 45.34 -104 44.68 -104 44 C-105.32 44 -106.64 44 -108 44 C-108 43.34 -108 42.68 -108 42 C-108.99 42 -109.98 42 -111 42 C-111.02465881 38.03069011 -111.04284023 34.06140966 -111.05493164 30.09204102 C-111.05997057 28.74079614 -111.06680177 27.38955674 -111.07543945 26.03833008 C-111.08752419 24.09979566 -111.09269828 22.161222 -111.09765625 20.22265625 C-111.10289307 19.05484619 -111.10812988 17.88703613 -111.11352539 16.68383789 C-111 14 -111 14 -110 13 C-106.69301698 12.76928025 -104.27057174 12.90588809 -101.125 14 C-97.21013068 15.25275818 -94.09575842 15.14123305 -90 15 C-90 13.68 -90 12.36 -90 11 C-90.7425 11.350625 -91.485 11.70125 -92.25 12.0625 C-95.1322726 13.04509293 -96.21176345 13.0326802 -99 12 C-98.34 11.67 -97.68 11.34 -97 11 C-97.33 10.01 -97.66 9.02 -98 8 C-94.62294375 8.53725895 -91.303314 9.11064623 -88 10 C-88 10.66 -88 11.32 -88 12 C-87.21625 12.12375 -86.4325 12.2475 -85.625 12.375 C-81.0646674 13.16126424 -76.53432907 14.07700416 -72 15 C-72 15.99 -72 16.98 -72 18 C-66.72 18.66 -61.44 19.32 -56 20 C-56 19.34 -56 18.68 -56 18 C-54.02 18 -52.04 18 -50 18 C-50 17.34 -50 16.68 -50 16 C-46.17679443 14.57741188 -43.08718695 13.75957724 -39 14 C-39 13.34 -39 12.68 -39 12 C-36.69 12 -34.38 12 -32 12 C-32 11.34 -32 10.68 -32 10 C-30.89591797 9.60167969 -30.89591797 9.60167969 -29.76953125 9.1953125 C-28.79371094 8.84210938 -27.81789063 8.48890625 -26.8125 8.125 C-25.84957031 7.77695313 -24.88664062 7.42890625 -23.89453125 7.0703125 C-22.03989744 6.38452348 -20.20096236 5.65363092 -18.38671875 4.8671875 C-16 4 -16 4 -12 4 C-12 3.34 -12 2.68 -12 2 C-7.8794254 0.00214565 -4.54805635 -0.17835515 0 0 Z " fill="#3E2021" transform="translate(156,90)"/>
<path d="M0 0 C2.64 0 5.28 0 8 0 C8 14.52 8 29.04 8 44 C8.66 44 9.32 44 10 44 C10 44.66 10 45.32 10 46 C10.66 46 11.32 46 12 46 C12.08114106 47.77007714 12.13925505 49.54122098 12.1875 51.3125 C12.23970703 52.79169922 12.23970703 52.79169922 12.29296875 54.30078125 C12 57 12 57 10.51367188 58.26757812 C8.25293989 60.85502234 8.56493691 63.0297887 8.48828125 66.41796875 C8.45283203 67.67158203 8.41738281 68.92519531 8.38085938 70.21679688 C8.35830078 71.52712891 8.33574219 72.83746094 8.3125 74.1875 C8.27932334 75.52282013 8.24483334 76.85810832 8.20898438 78.19335938 C8.12637943 81.46215504 8.05726771 84.73067812 8 88 C7.34 88 6.68 88 6 88 C6 88.66 6 89.32 6 90 C3.03 90 0.06 90 -3 90 C-4.44962183 87.10075634 -4.22126481 84.47699645 -4.31640625 81.2421875 C-4.33718735 80.57913605 -4.35796844 79.91608459 -4.37937927 79.23294067 C-4.44479231 77.11373306 -4.50372105 74.994401 -4.5625 72.875 C-4.60569309 71.43878919 -4.64930764 70.00259098 -4.69335938 68.56640625 C-4.80046499 65.04440406 -4.90175575 61.52226175 -5 58 C-5.99 58 -6.98 58 -8 58 C-8 54.04 -8 50.08 -8 46 C-7.34 46 -6.68 46 -6 46 C-6 45.34 -6 44.68 -6 44 C-5.34 44 -4.68 44 -4 44 C-4 30.14 -4 16.28 -4 2 C-2.68 2 -1.36 2 0 2 C0 1.34 0 0.68 0 0 Z M-1 3 C-3.11858552 5.11858552 -2.21059807 9.84096214 -2.24609375 12.77734375 C-2.27902754 14.58789554 -2.31223926 16.3984423 -2.34570312 18.20898438 C-2.39318542 21.07735773 -2.43761218 23.94570995 -2.47680664 26.81420898 C-2.51641066 29.57297274 -2.5679806 32.33131176 -2.62109375 35.08984375 C-2.6295079 35.9513353 -2.63792206 36.81282684 -2.64659119 37.70042419 C-2.77332648 43.77332648 -2.77332648 43.77332648 -5 46 C-5.45811675 47.97235333 -5.45811675 47.97235333 -5.625 50.125 C-5.74875 51.40375 -5.8725 52.6825 -6 54 C-4.35 54.66 -2.7 55.32 -1 56 C-1 66.23 -1 76.46 -1 87 C0.65 87 2.3 87 4 87 C4.76846219 83.57472269 5.13030325 80.38236818 5.17578125 76.875 C5.19962891 75.92109375 5.22347656 74.9671875 5.24804688 73.984375 C5.29101091 71.99501015 5.32226416 70.00535787 5.34179688 68.015625 C5.50749027 62.31268971 5.82417959 59.22514113 10 55 C10.5838196 51.9149255 10.5838196 51.9149255 10 49 C9.50489426 48.53792648 9.00978851 48.07585297 8.49967957 47.59977722 C6.5391894 45.50843212 6.60732034 44.36267208 6.56762695 41.52856445 C6.53793571 40.17750359 6.53793571 40.17750359 6.50764465 38.79914856 C6.50125473 37.83031235 6.49486481 36.86147614 6.48828125 35.86328125 C6.47033005 34.86870407 6.45237885 33.87412689 6.43388367 32.84941101 C6.37966984 29.6704839 6.34584917 26.49170787 6.3125 23.3125 C6.27933674 21.15818205 6.24484801 19.00388406 6.20898438 16.84960938 C6.12393728 11.56654173 6.05563442 6.28345479 6 1 C3.33581257 1 1.42524554 1.94284169 -1 3 Z " fill="#AB1C1A" transform="translate(162,96)"/>
<path d="M0 0 C3.37705625 0.53725895 6.696686 1.11064623 10 2 C10 2.66 10 3.32 10 4 C11.32 4 12.64 4 14 4 C14 4.99 14 5.98 14 7 C15.32 7 16.64 7 18 7 C18 7.99 18 8.98 18 10 C15.03 10.66 12.06 11.32 9 12 C11.10375 12.7115625 11.10375 12.7115625 13.25 13.4375 C14.03890625 13.70433594 14.8278125 13.97117187 15.640625 14.24609375 C17.74821988 14.91954708 19.84753973 15.49150595 22 16 C22 16.66 22 17.32 22 18 C23.98 18 25.96 18 28 18 C28 18.66 28 19.32 28 20 C29.2684375 19.9690625 29.2684375 19.9690625 30.5625 19.9375 C34 20 34 20 37.8125 20.5625 C38.864375 20.706875 39.91625 20.85125 41 21 C41.495 20.505 41.495 20.505 42 20 C43.99958364 19.95919217 46.00045254 19.95745644 48 20 C48 19.34 48 18.68 48 18 C49.32 18.33 50.64 18.66 52 19 C51.34 19 50.68 19 50 19 C50 19.66 50 20.32 50 21 C41.40920995 24.61717476 32.79612939 23.09609892 24 21 C24 20.34 24 19.68 24 19 C23.319375 19.04125 22.63875 19.0825 21.9375 19.125 C16.39721128 18.88924303 11.21355732 16.78023908 6 15 C6 14.34 6 13.68 6 13 C5.13375 12.896875 4.2675 12.79375 3.375 12.6875 C-0.18399879 11.96251876 -2.7805025 10.64399872 -6 9 C-7.65 8.67 -9.3 8.34 -11 8 C-10.67 16.25 -10.34 24.5 -10 33 C-8.68 33 -7.36 33 -6 33 C-6 33.66 -6 34.32 -6 35 C-5.34 35 -4.68 35 -4 35 C-4 35.66 -4 36.32 -4 37 C-3.34 37.33 -2.68 37.66 -2 38 C-3.32 38 -4.64 38 -6 38 C-6 37.34 -6 36.68 -6 36 C-7.32 36 -8.64 36 -10 36 C-10 35.34 -10 34.68 -10 34 C-10.99 34 -11.98 34 -13 34 C-13.02465881 30.03069011 -13.04284023 26.06140966 -13.05493164 22.09204102 C-13.05997057 20.74079614 -13.06680177 19.38955674 -13.07543945 18.03833008 C-13.08752419 16.09979566 -13.09269828 14.161222 -13.09765625 12.22265625 C-13.10289307 11.05484619 -13.10812988 9.88703613 -13.11352539 8.68383789 C-13 6 -13 6 -12 5 C-8.69301698 4.76928025 -6.27057174 4.90588809 -3.125 6 C0.78986932 7.25275818 3.90424158 7.14123305 8 7 C8 5.68 8 4.36 8 3 C7.2575 3.350625 6.515 3.70125 5.75 4.0625 C2.8677274 5.04509293 1.78823655 5.0326802 -1 4 C-0.34 3.67 0.32 3.34 1 3 C0.67 2.01 0.34 1.02 0 0 Z " fill="#302327" transform="translate(58,98)"/>
<path d="M0 0 C5.94 0.99 5.94 0.99 12 2 C12 2.99 12 3.98 12 5 C12.928125 5.144375 13.85625 5.28875 14.8125 5.4375 C18 6 18 6 21 7 C26.54825755 7.27741288 30.6487484 6.64653895 36 5 C37.32 5 38.64 5 40 5 C40 4.34 40 3.68 40 3 C41.32 3 42.64 3 44 3 C43.125 8.875 43.125 8.875 42 10 C39.32941149 10.14115161 36.67567762 10.04247107 34 10 C33.67 11.32 33.34 12.64 33 14 C27.39 14 21.78 14 16 14 C16 13.34 16 12.68 16 12 C14.39125 12.0928125 14.39125 12.0928125 12.75 12.1875 C5.20861786 12.1875 -1.97085253 10.5218606 -8 6 C-2.06 5.505 -2.06 5.505 4 5 C4 4.01 4 3.02 4 2 C2.68 2 1.36 2 0 2 C0 1.34 0 0.68 0 0 Z " fill="#2B2725" transform="translate(72,103)"/>
<path d="M0 0 C1.32 0 2.64 0 4 0 C4 0.66 4 1.32 4 2 C5.83072917 2.45768229 7.66145833 2.91536458 9.4921875 3.37304688 C10.98177083 3.74544271 12.47135417 4.11783854 13.9609375 4.49023438 C15.02441406 4.75610352 15.02441406 4.75610352 16.109375 5.02734375 C17.40625 5.3515625 18.703125 5.67578125 20 6 C21.11036621 6.27759155 21.11036621 6.27759155 22.24316406 6.56079102 C22.82291992 6.70572998 23.40267578 6.85066895 24 7 C24 7.66 24 8.32 24 9 C24.9075 8.9175 25.815 8.835 26.75 8.75 C30.73673402 9.05667185 31.39148658 10.13063524 34 13 C36.1381966 13.7872678 36.1381966 13.7872678 38 14 C38 14.66 38 15.32 38 16 C38.99 16.33 39.98 16.66 41 17 C40.505 18.485 40.505 18.485 40 20 C43.96 19.505 43.96 19.505 48 19 C48 20.32 48 21.64 48 23 C42.38209643 25.80895178 31.83708879 22.71745113 26 21 C25.34 20.34 24.68 19.68 24 19 C24 18.01 24 17.02 24 16 C25.32 16 26.64 16 28 16 C28 15.34 28 14.68 28 14 C25.525 13.505 25.525 13.505 23 13 C22.67 13.99 22.34 14.98 22 16 C20 15 20 15 19 12 C16.98491642 11.26676204 16.98491642 11.26676204 15 11 C14.67 9.68 14.34 8.36 14 7 C12.68 7 11.36 7 10 7 C10 6.34 10 5.68 10 5 C8.72125 4.690625 7.4425 4.38125 6.125 4.0625 C3.89898325 3.52394756 2.05260001 3.0263 0 2 C0 1.34 0 0.68 0 0 Z " fill="#2D2527" transform="translate(18,82)"/>
<path d="M0 0 C1.32 0.33 2.64 0.66 4 1 C3.67 1.33 3.34 1.66 3 2 C2.86441449 4.93196517 2.78936915 7.84367422 2.75390625 10.77734375 C2.72097246 12.58789554 2.68776074 14.3984423 2.65429688 16.20898438 C2.60681458 19.07735773 2.56238782 21.94570995 2.52319336 24.81420898 C2.48358934 27.57297274 2.4320194 30.33131176 2.37890625 33.08984375 C2.3704921 33.9513353 2.36207794 34.81282684 2.35340881 35.70042419 C2.22667352 41.77332648 2.22667352 41.77332648 0 44 C-0.45811675 45.97235333 -0.45811675 45.97235333 -0.625 48.125 C-0.74875 49.40375 -0.8725 50.6825 -1 52 C0.32 52.66 1.64 53.32 3 54 C3 64.23 3 74.46 3 85 C4.65 85 6.3 85 8 85 C8 83.35 8 81.7 8 80 C8.33 80 8.66 80 9 80 C9 81.98 9 83.96 9 86 C6.6875 86.6875 6.6875 86.6875 4 87 C2.35742188 85.89819336 2.35742188 85.89819336 1 84 C0.61523438 81.24438477 0.61523438 81.24438477 0.59375 77.94140625 C0.57183594 76.75095703 0.54992187 75.56050781 0.52734375 74.33398438 C0.51380859 72.46709961 0.51380859 72.46709961 0.5 70.5625 C0.48212971 68.10533501 0.45142669 65.64822089 0.40625 63.19140625 C0.39916016 62.10029541 0.39207031 61.00918457 0.38476562 59.88500977 C-0.04627535 56.65302293 -0.98386356 55.47822275 -3 53 C-3.27585754 49.13799438 -3.18391699 45.69974059 -2 42 C-1.34 42 -0.68 42 0 42 C0 28.14 0 14.28 0 0 Z " fill="#D1110F" transform="translate(158,98)"/>
<path d="M0 0 C-0.66 0.33 -1.32 0.66 -2 1 C-2 1.66 -2 2.32 -2 3 C-4.31 3 -6.62 3 -9 3 C-9 3.66 -9 4.32 -9 5 C-10.66015625 5.390625 -12.3203125 5.78125 -13.98046875 6.171875 C-16.18348177 6.95249188 -16.18348177 6.95249188 -18.26953125 8.9375 C-21.49976319 11.37750353 -24.63526012 12.31634007 -28.5 13.25 C-29.47646484 13.50910156 -29.47646484 13.50910156 -30.47265625 13.7734375 C-34.04971857 14.68396246 -37.31051471 15.19866459 -41 15 C-41 15.66 -41 16.32 -41 17 C-41.66 17 -42.32 17 -43 17 C-42.67 18.98 -42.34 20.96 -42 23 C-40.68 23.33 -39.36 23.66 -38 24 C-39.98 24 -41.96 24 -44 24 C-44 23.34 -44 22.68 -44 22 C-44.66 22 -45.32 22 -46 22 C-46.375 19.25 -46.375 19.25 -46 16 C-42.87476431 13.36091208 -41.13534147 12 -37 12 C-37 11.34 -37 10.68 -37 10 C-34.69 10 -32.38 10 -30 10 C-30 9.34 -30 8.68 -30 8 C-28.27143541 7.5186659 -26.54211929 7.04003029 -24.8125 6.5625 C-23.36810547 6.16224609 -23.36810547 6.16224609 -21.89453125 5.75390625 C-19.27336303 5.07119982 -16.661065 4.50107805 -14 4 C-14 3.34 -14 2.68 -14 2 C-9.07262981 0.02905192 -5.21979128 -0.1799928 0 0 Z " fill="#E80A09" transform="translate(56,58)"/>
<path d="M0 0 C0.495 0.99 0.495 0.99 1 2 C-2.25311426 5.90373711 -5.14148101 6.78537025 -10 8 C-10.64445068 8.3304834 -11.28890137 8.6609668 -11.95288086 9.00146484 C-28.36317089 17.00600703 -56.44688677 14.62952356 -74 12 C-74.33 11.67 -74.66 11.34 -75 11 C-76.63802872 10.63021574 -78.28587044 10.30331217 -79.9375 10 C-84.78587699 9.1070615 -84.78587699 9.1070615 -87 8 C-87 7.34 -87 6.68 -87 6 C-85.68 6 -84.36 6 -83 6 C-83 6.66 -83 7.32 -83 8 C-81.95199219 8.09087891 -81.95199219 8.09087891 -80.8828125 8.18359375 C-79.97273438 8.26738281 -79.06265625 8.35117188 -78.125 8.4375 C-77.22007813 8.51871094 -76.31515625 8.59992188 -75.3828125 8.68359375 C-73 9 -73 9 -71 10 C-68.02204729 10.09923388 -65.06796158 10.13981013 -62.08984375 10.1328125 C-61.20720352 10.13376923 -60.32456329 10.13472595 -59.41517639 10.13571167 C-57.54818653 10.13639269 -55.68119431 10.13454385 -53.81420898 10.13037109 C-50.94574712 10.1250154 -48.07744139 10.13032199 -45.20898438 10.13671875 C-43.39843715 10.13605808 -41.58789003 10.13477715 -39.77734375 10.1328125 C-38.91382797 10.13483673 -38.05031219 10.13686096 -37.16062927 10.13894653 C-33.26788729 10.51034821 -33.26788729 10.51034821 -30 9 C-27.73213358 8.72438083 -25.46041721 8.48028543 -23.1875 8.25 C-14.72361495 7.26667778 -7.14041067 4.76027378 0 0 Z " fill="#D41210" transform="translate(143,130)"/>
<path d="M0 0 C0.66 0 1.32 0 2 0 C2 0.66 2 1.32 2 2 C1.34 2 0.68 2 0 2 C0.495 3.485 0.495 3.485 1 5 C0.45472656 5.09796875 -0.09054688 5.1959375 -0.65234375 5.296875 C-4.89713118 6.13857644 -8.65170387 7.18886074 -12.5625 9.0625 C-16.76676579 11.05749431 -20.38470342 11.58791995 -25 12 C-25.33 12.33 -25.66 12.66 -26 13 C-28.95705321 13.08868299 -31.89065056 13.11520296 -34.84765625 13.09765625 C-36.17729652 13.09553383 -36.17729652 13.09553383 -37.53379822 13.09336853 C-40.37673254 13.08775215 -43.21958931 13.07519691 -46.0625 13.0625 C-47.98502491 13.05748711 -49.90755104 13.05292384 -51.83007812 13.04882812 C-56.55341549 13.03777741 -61.27669458 13.02050183 -66 13 C-66 12.34 -66 11.68 -66 11 C-68.97 11 -71.94 11 -75 11 C-75 10.34 -75 9.68 -75 9 C-75.99 8.67 -76.98 8.34 -78 8 C-76.73736328 8.2165625 -76.73736328 8.2165625 -75.44921875 8.4375 C-58.01616743 11.04431141 -40.15255303 11.00677595 -22.6875 8.6875 C-21.79337402 8.56995361 -20.89924805 8.45240723 -19.97802734 8.33129883 C-15.10194691 7.59456723 -11.37295686 6.38886869 -7 4 C-4.125 3.8125 -4.125 3.8125 -2 4 C-1.34 2.68 -0.68 1.36 0 0 Z " fill="#601F1D" transform="translate(142,132)"/>
<path d="M0 0 C5.92760534 -0.60795952 9.77556073 1.46693854 15 4 C15 7.3 15 10.6 15 14 C1.5234375 18.4921875 1.5234375 18.4921875 -0.84228516 19.27685547 C-2.62980183 19.87593042 -4.40974271 20.49755625 -6.1875 21.125 C-9.23986525 22.07462474 -12.21775013 22.63387224 -15.375 23.125 C-16.43460938 23.29257813 -17.49421875 23.46015625 -18.5859375 23.6328125 C-19.38257813 23.75398438 -20.17921875 23.87515625 -21 24 C-21 24.66 -21 25.32 -21 26 C-25.43076923 28.09230769 -25.43076923 28.09230769 -28.3125 27.625 C-29.1478125 27.315625 -29.1478125 27.315625 -30 27 C-23.15390397 20.95932703 -14.01011241 19 -5 19 C-5 18.34 -5 17.68 -5 17 C-3.08594633 16.32586789 -1.16863974 15.6609668 0.75 15 C1.81734375 14.62875 2.8846875 14.2575 3.984375 13.875 C7 13 7 13 11 13 C11 12.34 11 11.68 11 11 C11.99 11 12.98 11 14 11 C13.81266183 9.03838102 13.81266183 9.03838102 13 7 C11.15272433 5.86929556 11.15272433 5.86929556 8.9375 5.25 C8.20402344 5.00765625 7.47054687 4.7653125 6.71484375 4.515625 C6.14894531 4.34546875 5.58304688 4.1753125 5 4 C5 3.34 5 2.68 5 2 C2.525 1.505 2.525 1.505 0 1 C0 0.67 0 0.34 0 0 Z " fill="#A5191B" transform="translate(165,68)"/>
<path d="M0 0 C-2.83395931 2.32789515 -4.29511572 3.07377893 -8 4 C-8.33 15.22 -8.66 26.44 -9 38 C-9.33 38 -9.66 38 -10 38 C-10 30.41 -10 22.82 -10 15 C-13.63 15.99 -17.26 16.98 -21 18 C-21.99 18 -22.98 18 -24 18 C-24 18.66 -24 19.32 -24 20 C-27.83887763 21.48320272 -30.06204091 22.22419163 -34 21 C-33.50113281 20.78085938 -33.00226563 20.56171875 -32.48828125 20.3359375 C-26.52419329 17.70188788 -20.6176022 14.95732315 -14.72265625 12.171875 C-12 11 -12 11 -10 11 C-10 9.35 -10 7.7 -10 6 C-12.31 6 -14.62 6 -17 6 C-16.67 5.34 -16.34 4.68 -16 4 C-14.68 4 -13.36 4 -12 4 C-12 3.34 -12 2.68 -12 2 C-7.8794254 0.00214565 -4.54805635 -0.17835515 0 0 Z " fill="#4B1B1E" transform="translate(156,90)"/>
<path d="M0 0 C4.6875 0.78125 4.6875 0.78125 9.375 1.5625 C10.674375 1.7790625 10.674375 1.7790625 12 2 C12 2.66 12 3.32 12 4 C12.65226562 4.12117188 13.30453125 4.24234375 13.9765625 4.3671875 C18.78646342 5.28943989 23.39025465 6.30167277 28 8 C28 8.66 28 9.32 28 10 C29.98 10 31.96 10 34 10 C34 10.66 34 11.32 34 12 C34.845625 11.979375 35.69125 11.95875 36.5625 11.9375 C40 12 40 12 43.8125 12.5625 C44.864375 12.706875 45.91625 12.85125 47 13 C47.33 12.67 47.66 12.34 48 12 C49.99958364 11.95919217 52.00045254 11.95745644 54 12 C54 11.34 54 10.68 54 10 C55.32 10.33 56.64 10.66 58 11 C57.34 11 56.68 11 56 11 C56 11.66 56 12.32 56 13 C47.40920995 16.61717476 38.79612939 15.09609892 30 13 C30 12.34 30 11.68 30 11 C28.9790625 11.061875 28.9790625 11.061875 27.9375 11.125 C22.39721128 10.88924303 17.21355732 8.78023908 12 7 C12 6.34 12 5.68 12 5 C10.700625 4.8453125 10.700625 4.8453125 9.375 4.6875 C5.83316877 3.96601586 3.15687958 2.72876739 0 1 C0 0.67 0 0.34 0 0 Z " fill="#B11B19" transform="translate(52,106)"/>
<path d="M0 0 C1.32 0 2.64 0 4 0 C3.125 5.875 3.125 5.875 2 7 C-0.67058851 7.14115161 -3.32432238 7.04247107 -6 7 C-6.33 8.32 -6.66 9.64 -7 11 C-12.61 11 -18.22 11 -24 11 C-24 10.01 -24 9.02 -24 8 C-23.15695313 7.97421875 -22.31390625 7.9484375 -21.4453125 7.921875 C-20.34960938 7.86515625 -19.25390625 7.8084375 -18.125 7.75 C-17.03445312 7.70359375 -15.94390625 7.6571875 -14.8203125 7.609375 C-13.88960937 7.40828125 -12.95890625 7.2071875 -12 7 C-11.30062468 5.68352881 -10.63270867 4.34977849 -10 3 C-7.6171875 2.390625 -7.6171875 2.390625 -4.875 2.25 C-3.96492188 2.19328125 -3.05484375 2.1365625 -2.1171875 2.078125 C-1.41851562 2.05234375 -0.71984375 2.0265625 0 2 C0 1.34 0 0.68 0 0 Z " fill="#282727" transform="translate(112,106)"/>
<path d="M0 0 C0.33 0 0.66 0 1 0 C1 13.86 1 27.72 1 42 C0.34 42 -0.32 42 -1 42 C-1 42.66 -1 43.32 -1 44 C-1.66 44 -2.32 44 -3 44 C-3 47.3 -3 50.6 -3 54 C-5 50 -5 50 -5 46 C-5.66 46 -6.32 46 -7 46 C-7.63671315 40.77895216 -6.23234994 38.32292214 -3.19140625 34.3203125 C-2.79824219 33.88460937 -2.40507812 33.44890625 -2 33 C-1.67 33 -1.34 33 -1 33 C-0.67 22.11 -0.34 11.22 0 0 Z " fill="#3B201F" transform="translate(157,98)"/>
<path d="M0 0 C0 1.65 0 3.3 0 5 C-5.97332123 8.4753869 -10.11509775 9.57374185 -17 9 C-17 9.66 -17 10.32 -17 11 C-18.32 11 -19.64 11 -21 11 C-20.67 9.68 -20.34 8.36 -20 7 C-18.02 7 -16.04 7 -14 7 C-13.34 5.68 -12.68 4.36 -12 3 C-11.34 3 -10.68 3 -10 3 C-10 2.34 -10 1.68 -10 1 C-6.52674819 -0.1577506 -3.63932552 -0.06866652 0 0 Z " fill="#282825" transform="translate(146,96)"/>
<path d="M0 0 C1.21236328 0.02707031 1.21236328 0.02707031 2.44921875 0.0546875 C3.37154297 0.08949219 3.37154297 0.08949219 4.3125 0.125 C4.3125 1.445 4.3125 2.765 4.3125 4.125 C6.9525 3.795 9.5925 3.465 12.3125 3.125 C12.3125 4.445 12.3125 5.765 12.3125 7.125 C6.75841971 9.90204015 -1.99100826 6.70735882 -7.6875 5.125 C-7.6875 4.135 -7.6875 3.145 -7.6875 2.125 C-4.48369983 -0.01086678 -3.66810033 -0.10632175 0 0 Z " fill="#292825" transform="translate(53.6875,97.875)"/>
<path d="M0 0 C0 8.25 0 16.5 0 25 C-0.66 25 -1.32 25 -2 25 C-1.67 17.41 -1.34 9.82 -1 2 C-2.98 2.99 -2.98 2.99 -5 4 C-6.19625 4.165 -7.3925 4.33 -8.625 4.5 C-12.06422625 4.66699497 -12.06422625 4.66699497 -14 7 C-17.99780058 8.14222874 -21.8649837 8.08107875 -26 8 C-26 8.66 -26 9.32 -26 10 C-28.64 10.33 -31.28 10.66 -34 11 C-34 10.34 -34 9.68 -34 9 C-30.55529653 7.7082362 -27.33079016 6.84449818 -23.6875 6.4375 C-20.20356334 6.40985408 -20.20356334 6.40985408 -19 5 C-17.33382885 4.95936168 -15.66611905 4.957279 -14 5 C-14 4.34 -14 3.68 -14 3 C-12.60764957 2.49038154 -11.21090882 1.99275091 -9.8125 1.5 C-8.64654297 1.08234375 -8.64654297 1.08234375 -7.45703125 0.65625 C-5 0 -5 0 0 0 Z " fill="#D2140F" transform="translate(146,105)"/>
<path d="M0 0 C-5.445 1.485 -5.445 1.485 -11 3 C-11 3.66 -11 4.32 -11 5 C-13.31 5 -15.62 5 -18 5 C-18 5.66 -18 6.32 -18 7 C-21.63 7.66 -25.26 8.32 -29 9 C-29 9.66 -29 10.32 -29 11 C-30.98 11 -32.96 11 -35 11 C-35 11.66 -35 12.32 -35 13 C-40.73842251 13.20413361 -45.60539047 13.27141454 -51 11 C-51 10.34 -51 9.68 -51 9 C-48.36 9.33 -45.72 9.66 -43 10 C-43 10.66 -43 11.32 -43 12 C-41.05954312 11.5758071 -39.12268239 11.13514005 -37.1875 10.6875 C-36.10855469 10.44386719 -35.02960938 10.20023438 -33.91796875 9.94921875 C-30.9522954 8.98448164 -30.06475465 8.18479853 -28 6 C-26.070184 5.77103878 -24.13915666 5.54741271 -22.203125 5.37890625 C-18.31402327 4.71003592 -13.8336948 2.8336948 -11 0 C-6.78079434 -0.79607654 -4.21652168 -1.05413042 0 0 Z " fill="#B61C15" transform="translate(135,97)"/>
<path d="M0 0 C1.32 0.33 2.64 0.66 4 1 C3.67 1.33 3.34 1.66 3 2 C2.83970312 4.95529504 2.74042672 7.88982457 2.68359375 10.84765625 C2.66281265 11.7340831 2.64203156 12.62050995 2.62062073 13.53379822 C2.555026 16.376617 2.49619448 19.21953117 2.4375 22.0625 C2.3943242 23.98503606 2.35071022 25.90756234 2.30664062 27.83007812 C2.19933457 32.55328668 2.09809549 37.27659153 2 42 C0.68 42.66 -0.64 43.32 -2 44 C-2 43.34 -2 42.68 -2 42 C-1.34 42 -0.68 42 0 42 C0 28.14 0 14.28 0 0 Z " fill="#9D201D" transform="translate(158,98)"/>
<path d="M0 0 C1.2065625 0.0309375 1.2065625 0.0309375 2.4375 0.0625 C2.4375 0.7225 2.4375 1.3825 2.4375 2.0625 C1.4475 2.0625 0.4575 2.0625 -0.5625 2.0625 C-0.5625 16.9125 -0.5625 31.7625 -0.5625 47.0625 C0.4275 47.0625 1.4175 47.0625 2.4375 47.0625 C2.4375 48.0525 2.4375 49.0425 2.4375 50.0625 C1.7775 50.0625 1.1175 50.0625 0.4375 50.0625 C0.4375 49.4025 0.4375 48.7425 0.4375 48.0625 C-0.2225 48.0625 -0.8825 48.0625 -1.5625 48.0625 C-1.5625 33.5425 -1.5625 19.0225 -1.5625 4.0625 C-4.2025 4.0625 -6.8425 4.0625 -9.5625 4.0625 C-9.5625 4.7225 -9.5625 5.3825 -9.5625 6.0625 C-10.2225 6.0625 -10.8825 6.0625 -11.5625 6.0625 C-11.5625 4.7425 -11.5625 3.4225 -11.5625 2.0625 C-9.51171875 1.83463542 -7.4609375 1.60677083 -5.41015625 1.37890625 C-2.80458624 0.93270927 -2.89290947 0.07055877 0 0 Z " fill="#451E1E" transform="translate(171.5625,91.9375)"/>
<path d="M0 0 C5.94 0.99 5.94 0.99 12 2 C12 2.99 12 3.98 12 5 C13.32 5.33 14.64 5.66 16 6 C15.06027344 5.94779297 15.06027344 5.94779297 14.1015625 5.89453125 C13.28429687 5.86746094 12.46703125 5.84039062 11.625 5.8125 C10.40683594 5.76029297 10.40683594 5.76029297 9.1640625 5.70703125 C8.44992188 5.80371094 7.73578125 5.90039062 7 6 C6.01 7.485 6.01 7.485 5 9 C5.99 9.33 6.98 9.66 8 10 C4.65508511 11.13529002 2.73934469 10.86633118 -0.5625 9.6875 C-1.32691406 9.42324219 -2.09132813 9.15898438 -2.87890625 8.88671875 C-5 8 -5 8 -8 6 C-2.06 5.505 -2.06 5.505 4 5 C4 4.01 4 3.02 4 2 C2.68 2 1.36 2 0 2 C0 1.34 0 0.68 0 0 Z " fill="#462021" transform="translate(72,103)"/>
<path d="M0 0 C4.31398907 0.53924863 8.02892876 1.6611316 12.04296875 3.2421875 C13.77594031 3.91323836 15.54294171 4.49490583 17.3125 5.0625 C20 6 20 6 23 8 C25.27912938 8.45394552 25.27912938 8.45394552 27.6875 8.625 C28.49574219 8.69976562 29.30398437 8.77453125 30.13671875 8.8515625 C30.75160156 8.90054688 31.36648437 8.94953125 32 9 C32 9.66 32 10.32 32 11 C34.31 11 36.62 11 39 11 C39 11.66 39 12.32 39 13 C40.65 13 42.3 13 44 13 C44 13.66 44 14.32 44 15 C46.475 15.495 46.475 15.495 49 16 C45.30581799 17.231394 42.7943739 16.64432764 39 16 C39 15.34 39 14.68 39 14 C37.68 14 36.36 14 35 14 C35 13.34 35 12.68 35 12 C33.989375 11.87625 32.97875 11.7525 31.9375 11.625 C25.30213043 10.57176674 18.95939836 8.38829646 12.5625 6.375 C11.83095703 6.14554688 11.09941406 5.91609375 10.34570312 5.6796875 C8.56355398 5.12058189 6.7817414 4.56040366 5 4 C5 3.34 5 2.68 5 2 C3.35 1.67 1.7 1.34 0 1 C0 0.67 0 0.34 0 0 Z " fill="#BE1A18" transform="translate(116,51)"/>
<path d="M0 0 C1.65 0 3.3 0 5 0 C5 0.66 5 1.32 5 2 C4.01 2 3.02 2 2 2 C2.33 10.25 2.66 18.5 3 27 C4.32 27 5.64 27 7 27 C7 27.66 7 28.32 7 29 C7.66 29 8.32 29 9 29 C9 29.66 9 30.32 9 31 C9.66 31.33 10.32 31.66 11 32 C9.68 32 8.36 32 7 32 C7 31.34 7 30.68 7 30 C5.68 30 4.36 30 3 30 C3 29.34 3 28.68 3 28 C2.01 28 1.02 28 0 28 C0 18.76 0 9.52 0 0 Z " fill="#A31717" transform="translate(45,104)"/>
<path d="M0 0 C0.66 0.66 1.32 1.32 2 2 C4.65537372 2.56520003 7.29144713 2.73788198 10 3 C10 3.66 10 4.32 10 5 C11.134375 5.28875 12.26875 5.5775 13.4375 5.875 C14.613125 6.24625 15.78875 6.6175 17 7 C17.495 7.99 17.495 7.99 18 9 C13.13103697 8.40380045 8.67209049 7.43023178 4 6 C4 5.34 4 4.68 4 4 C-2.85024615 2.62995077 -9.14975385 2.62995077 -16 4 C-15 1 -15 1 -13.0625 -0.25 C-8.65676977 -1.32895434 -4.42182527 -0.97045369 0 0 Z " fill="#651F1E" transform="translate(102,42)"/>
<path d="M0 0 C-3.20807087 1.12574941 -6.41650348 2.25046436 -9.625 3.375 C-10.52863281 3.69210938 -11.43226562 4.00921875 -12.36328125 4.3359375 C-16.07286565 5.6356459 -19.78032315 6.92799481 -23.515625 8.15234375 C-26.00206708 8.91759006 -26.00206708 8.91759006 -28.125 10.1875 C-30.47562146 11.20610263 -31.63348782 10.84518292 -34 10 C-32.30820672 7.95780294 -31.36272334 7.08206694 -28.73828125 6.48828125 C-27.93777344 6.43027344 -27.13726562 6.37226562 -26.3125 6.3125 C-25.50425781 6.24675781 -24.69601563 6.18101563 -23.86328125 6.11328125 C-22.94095703 6.05720703 -22.94095703 6.05720703 -22 6 C-22 5.01 -22 4.02 -22 3 C-20.72125 2.87625 -19.4425 2.7525 -18.125 2.625 C-14.65209064 2.30957601 -14.65209064 2.30957601 -12 0 C-7.48496711 -0.80105422 -4.41223507 -1.18684632 0 0 Z " fill="#681E1C" transform="translate(86,47)"/>
<path d="M0 0 C0.66 0 1.32 0 2 0 C1.96519531 0.60328125 1.93039063 1.2065625 1.89453125 1.828125 C1.86746094 2.62734375 1.84039062 3.4265625 1.8125 4.25 C1.76029297 5.43335938 1.76029297 5.43335938 1.70703125 6.640625 C1.78827045 9.07650342 1.78827045 9.07650342 3.48632812 10.7265625 C5.53422034 13.80236448 5.43111454 16.05882288 5.51171875 19.734375 C5.54716797 21.02988281 5.58261719 22.32539063 5.61914062 23.66015625 C5.64223867 25.02343226 5.66502114 26.38671364 5.6875 27.75 C5.72068648 29.12893862 5.75517738 30.5078465 5.79101562 31.88671875 C5.87352291 35.25773059 5.94266771 38.62848128 6 42 C8.64 42 11.28 42 14 42 C14 42.66 14 43.32 14 44 C11.03 44 8.06 44 5 44 C3.55037817 41.10075634 3.77873519 38.47699645 3.68359375 35.2421875 C3.66281265 34.57913605 3.64203156 33.91608459 3.62062073 33.23294067 C3.55520769 31.11373306 3.49627895 28.994401 3.4375 26.875 C3.39430691 25.43878919 3.35069236 24.00259098 3.30664062 22.56640625 C3.19953501 19.04440406 3.09824425 15.52226175 3 12 C2.01 12 1.02 12 0 12 C0 8.04 0 4.08 0 0 Z " fill="#892321" transform="translate(154,142)"/>
<path d="M0 0 C1.32 0 2.64 0 4 0 C4 0.66 4 1.32 4 2 C5.83072917 2.45768229 7.66145833 2.91536458 9.4921875 3.37304688 C10.98177083 3.74544271 12.47135417 4.11783854 13.9609375 4.49023438 C15.02441406 4.75610352 15.02441406 4.75610352 16.109375 5.02734375 C17.40625 5.3515625 18.703125 5.67578125 20 6 C21.11036621 6.27759155 21.11036621 6.27759155 22.24316406 6.56079102 C22.82291992 6.70572998 23.40267578 6.85066895 24 7 C24 7.66 24 8.32 24 9 C24.928125 8.938125 25.85625 8.87625 26.8125 8.8125 C30 9 30 9 31.875 10.5 C32.24625 10.995 32.6175 11.49 33 12 C26.80138093 12.67012098 21.64376389 10.24947173 16 8 C16 7.34 16 6.68 16 6 C14.824375 6.12375 14.824375 6.12375 13.625 6.25 C8.62373094 5.90508489 4.5484412 4.01353919 0 2 C0 1.34 0 0.68 0 0 Z " fill="#B0191A" transform="translate(18,82)"/>
<path d="M0 0 C-0.66 0 -1.32 0 -2 0 C-2.103125 0.61875 -2.20625 1.2375 -2.3125 1.875 C-3 4 -3 4 -6 6 C-7.32 6 -8.64 6 -10 6 C-10 5.34 -10 4.68 -10 4 C-11.32 4.33 -12.64 4.66 -14 5 C-13.34 5.66 -12.68 6.32 -12 7 C-14.64 7 -17.28 7 -20 7 C-18.68 6.34 -17.36 5.68 -16 5 C-16 4.34 -16 3.68 -16 3 C-14.08802961 2.29954544 -12.17019565 1.615081 -10.25 0.9375 C-9.18265625 0.55464844 -8.1153125 0.17179687 -7.015625 -0.22265625 C-4.07719958 -0.98010011 -2.77651052 -1.07151741 0 0 Z " fill="#342324" transform="translate(172,86)"/>
<path d="M0 0 C-0.66 0.66 -1.32 1.32 -2 2 C-3.32 2 -4.64 2 -6 2 C-6 2.66 -6 3.32 -6 4 C-8.31 4 -10.62 4 -13 4 C-13 4.66 -13 5.32 -13 6 C-15.97 7.32 -18.94 8.64 -22 10 C-22 9.01 -22 8.02 -22 7 C-23.32 7.33 -24.64 7.66 -26 8 C-26 6.68 -26 5.36 -26 4 C-24.02 3.67 -22.04 3.34 -20 3 C-20 3.66 -20 4.32 -20 5 C-18.02 5 -16.04 5 -14 5 C-14 4.34 -14 3.68 -14 3 C-4.58997722 -0.44419134 -4.58997722 -0.44419134 0 0 Z " fill="#3F2223" transform="translate(32,64)"/>
<path d="M0 0 C3.96 0 7.92 0 12 0 C12 0.66 12 1.32 12 2 C12.66 2 13.32 2 14 2 C14 2.66 14 3.32 14 4 C17.3 4.99 20.6 5.98 24 7 C24 7.66 24 8.32 24 9 C19.48507463 9.37624378 19.48507463 9.37624378 17.171875 7.58203125 C14.63425121 5.73358227 12.54684618 5.20311835 9.5 4.5 C5.2344085 3.51563273 3.68670458 2.76502843 0 0 Z " fill="#681B20" transform="translate(120,51)"/>
<path d="M0 0 C-0.99 0.495 -0.99 0.495 -2 1 C-2 1.66 -2 2.32 -2 3 C-4.31 3 -6.62 3 -9 3 C-9 3.66 -9 4.32 -9 5 C-11.08047297 5.5321441 -13.16452293 6.05031786 -15.25 6.5625 C-16.41015625 6.85253906 -17.5703125 7.14257812 -18.765625 7.44140625 C-21.72090983 7.95179964 -23.24434101 8.02996165 -26 7 C-24.75336669 6.49166409 -23.50250613 5.99368855 -22.25 5.5 C-21.55390625 5.2215625 -20.8578125 4.943125 -20.140625 4.65625 C-18 4 -18 4 -14 4 C-14 3.34 -14 2.68 -14 2 C-9.07262981 0.02905192 -5.21979128 -0.1799928 0 0 Z " fill="#BB1816" transform="translate(56,58)"/>
<path d="M0 0 C-0.99 0 -1.98 0 -3 0 C-3 0.66 -3 1.32 -3 2 C-6.254013 4.169342 -9.00130718 5.0390053 -12.75 6.125 C-13.94109375 6.47820312 -15.1321875 6.83140625 -16.359375 7.1953125 C-20.0279886 8.00618632 -23.25637566 8.14398555 -27 8 C-27 7.67 -27 7.34 -27 7 C-25.35 7 -23.7 7 -22 7 C-22 6.34 -22 5.68 -22 5 C-19.69 5 -17.38 5 -15 5 C-15 4.34 -15 3.68 -15 3 C-13.25531628 2.29911844 -11.50398839 1.61475991 -9.75 0.9375 C-8.77546875 0.55464844 -7.8009375 0.17179687 -6.796875 -0.22265625 C-3.95992605 -1.01113787 -2.70590448 -1.02437812 0 0 Z " fill="#5B191C" transform="translate(139,97)"/>
<path d="M0 0 C0.33 0 0.66 0 1 0 C1.33 4.29 1.66 8.58 2 13 C1.34 13 0.68 13 0 13 C0 13.66 0 14.32 0 15 C-0.99 15 -1.98 15 -3 15 C-3 23.58 -3 32.16 -3 41 C-3.33 41 -3.66 41 -4 41 C-4.07421454 37.06739056 -4.12863136 33.13505278 -4.16479492 29.2019043 C-4.18728333 27.20672299 -4.22540198 25.21173787 -4.26367188 23.21679688 C-4.27333984 21.96318359 -4.28300781 20.70957031 -4.29296875 19.41796875 C-4.3086792 18.26063232 -4.32438965 17.1032959 -4.34057617 15.91088867 C-3.96072481 12.66431679 -3.43316462 12.01560217 -1 10 C-0.42428504 7.49796352 -0.42428504 7.49796352 -0.3125 4.8125 C-0.21388672 3.46091797 -0.21388672 3.46091797 -0.11328125 2.08203125 C-0.05720703 1.05142578 -0.05720703 1.05142578 0 0 Z " fill="#421D1D" transform="translate(174,143)"/>
<path d="M0 0 C0.66 0 1.32 0 2 0 C2 7.92 2 15.84 2 24 C1.34 24 0.68 24 0 24 C0 18.72 0 13.44 0 8 C-0.66 8 -1.32 8 -2 8 C-1.33333333 5.33333333 -0.66666667 2.66666667 0 0 Z " fill="#4A2224" transform="translate(43,104)"/>
<path d="M0 0 C4.62 0 9.24 0 14 0 C11.57869669 2.42130331 10.19888623 2.52840504 6.875 3.125 C5.50988281 3.37636719 5.50988281 3.37636719 4.1171875 3.6328125 C3.41851562 3.75398438 2.71984375 3.87515625 2 4 C2 4.66 2 5.32 2 6 C-1.50776784 7.60355101 -4.14354879 8.22036864 -8 8 C-7.34 7.67 -6.68 7.34 -6 7 C-6 6.34 -6 5.68 -6 5 C-4.02 4.34 -2.04 3.68 0 3 C0 2.01 0 1.02 0 0 Z " fill="#392123" transform="translate(40,56)"/>
<path d="M0 0 C7.875 1.125 7.875 1.125 11 4 C9.88625 3.95875 8.7725 3.9175 7.625 3.875 C3.95633975 3.58878141 3.95633975 3.58878141 2 6 C1.6936141 8.73434962 1.4886664 11.38279821 1.375 14.125 C1.33632813 14.87910156 1.29765625 15.63320312 1.2578125 16.41015625 C1.16348969 18.27303184 1.08065338 20.13648255 1 22 C0.67 22 0.34 22 0 22 C0 14.74 0 7.48 0 0 Z " fill="#ED0904" transform="translate(47,106)"/>
<path d="M0 0 C5.82271337 -0.59720137 9.9209404 1.471757 15 4 C15 6.64 15 9.28 15 12 C13.68 12.33 12.36 12.66 11 13 C11 12.34 11 11.68 11 11 C11.99 11 12.98 11 14 11 C13.81266183 9.03838102 13.81266183 9.03838102 13 7 C11.15272433 5.86929556 11.15272433 5.86929556 8.9375 5.25 C8.20402344 5.00765625 7.47054687 4.7653125 6.71484375 4.515625 C5.86599609 4.26039062 5.86599609 4.26039062 5 4 C5 3.34 5 2.68 5 2 C3.35 1.67 1.7 1.34 0 1 C0 0.67 0 0.34 0 0 Z " fill="#BE1A19" transform="translate(165,68)"/>
<path d="M0 0 C4.6875 0.78125 4.6875 0.78125 9.375 1.5625 C10.674375 1.7790625 10.674375 1.7790625 12 2 C12 2.66 12 3.32 12 4 C12.53625 4.103125 13.0725 4.20625 13.625 4.3125 C16.62502044 5.18092697 19.2379535 6.55620296 22 8 C18.18510326 9.46726798 15.70988378 8.43336419 12 7 C12 6.34 12 5.68 12 5 C10.700625 4.8453125 10.700625 4.8453125 9.375 4.6875 C5.83316877 3.96601586 3.15687958 2.72876739 0 1 C0 0.67 0 0.34 0 0 Z " fill="#C31716" transform="translate(52,106)"/>
<path d="M0 0 C0.33 0.66 0.66 1.32 1 2 C-2.25311426 5.90373711 -5.14148101 6.78537025 -10 8 C-10.99 8.556875 -10.99 8.556875 -12 9.125 C-14.98478663 10.43084415 -17.78966601 10.12347438 -21 10 C-18.71689838 7.71689838 -17.5149066 7.47250356 -14.4375 6.6875 C-9.13988402 5.19152111 -4.67990517 2.85994205 0 0 Z " fill="#B01C19" transform="translate(143,130)"/>
<path d="M0 0 C4.31398907 0.53924863 8.02892876 1.6611316 12.04296875 3.2421875 C13.77594031 3.91323836 15.54294171 4.49490583 17.3125 5.0625 C20 6 20 6 23 8 C24.65549531 8.38499891 26.3222433 8.72793135 28 9 C28 9.33 28 9.66 28 10 C22.93559656 10.51942599 19.76767973 9.15086703 15.32421875 7.0234375 C11.95575853 5.54018275 8.59022174 4.78332111 5 4 C5 3.34 5 2.68 5 2 C3.35 1.67 1.7 1.34 0 1 C0 0.67 0 0.34 0 0 Z " fill="#D7120E" transform="translate(116,51)"/>
<path d="M0 0 C0 0.33 0 0.66 0 1 C-1.76949612 1.50471197 -3.54065223 2.00360685 -5.3125 2.5 C-6.79169922 2.91765625 -6.79169922 2.91765625 -8.30078125 3.34375 C-11 4 -11 4 -14 4 C-14 4.66 -14 5.32 -14 6 C-17.83887763 7.48320272 -20.06204091 8.22419163 -24 7 C-21.81504319 6.02395353 -19.62866547 5.05190234 -17.4375 4.08984375 C-15.41750875 3.18667459 -13.42352614 2.22559179 -11.4375 1.25 C-7.29310721 -0.25705192 -4.37494095 -0.23026005 0 0 Z " fill="#8E1C1A" transform="translate(146,104)"/>
<path d="M0 0 C-2.91765 1.9451 -4.62537285 2.45276317 -8 3 C-8 3.66 -8 4.32 -8 5 C-12.43076923 7.09230769 -12.43076923 7.09230769 -15.3125 6.625 C-15.869375 6.41875 -16.42625 6.2125 -17 6 C-11.64977126 1.27920994 -7.12734186 -0.33939723 0 0 Z " fill="#D61113" transform="translate(152,89)"/>
<path d="M0 0 C2.64 0.33 5.28 0.66 8 1 C8 1.66 8 2.32 8 3 C9.5159375 2.505 9.5159375 2.505 11.0625 2 C14.75479911 0.92998679 18.15248207 0.84295845 22 1 C22 1.33 22 1.66 22 2 C20.02 2 18.04 2 16 2 C16 2.66 16 3.32 16 4 C10.26157749 4.20413361 5.39460953 4.27141454 0 2 C0 1.34 0 0.68 0 0 Z " fill="#B2211D" transform="translate(84,106)"/>
<path d="M0 0 C5.21979128 -0.1799928 9.07262981 0.02905192 14 2 C14 2.66 14 3.32 14 4 C14.9075 3.938125 15.815 3.87625 16.75 3.8125 C20.28982642 4.01672076 21.44931155 4.64551835 24 7 C22.9790625 6.7834375 22.9790625 6.7834375 21.9375 6.5625 C18.92950722 5.94566976 18.92950722 5.94566976 15.5625 5.625 C11.85350837 4.97429971 9.33090093 3.70088558 6 2 C2.7633037 1.29241674 2.7633037 1.29241674 0 1 C0 0.67 0 0.34 0 0 Z " fill="#DA1112" transform="translate(92,44)"/>
<path d="M0 0 C1.32 0 2.64 0 4 0 C4 0.66 4 1.32 4 2 C4.96099609 2.07347656 4.96099609 2.07347656 5.94140625 2.1484375 C11.21196085 2.6040145 15.96986288 3.3597379 21 5 C21 5.33 21 5.66 21 6 C14.84765625 6.09765625 14.84765625 6.09765625 13 6 C12.67 5.67 12.34 5.34 12 5 C10.36197128 4.63021574 8.71412956 4.30331217 7.0625 4 C2.21412301 3.1070615 2.21412301 3.1070615 0 2 C0 1.34 0 0.68 0 0 Z " fill="#A01D1F" transform="translate(56,136)"/>
<path d="M0 0 C0 0.99 0 1.98 0 3 C-0.71027344 3.13277344 -1.42054687 3.26554687 -2.15234375 3.40234375 C-3.07144531 3.57894531 -3.99054688 3.75554687 -4.9375 3.9375 C-5.85402344 4.11152344 -6.77054688 4.28554687 -7.71484375 4.46484375 C-9.95289844 4.77714988 -9.95289844 4.77714988 -11 6 C-13.67058851 6.14115161 -16.32432238 6.04247107 -19 6 C-19 5.67 -19 5.34 -19 5 C-16.69 5 -14.38 5 -12 5 C-12 4.34 -12 3.68 -12 3 C-10.02 3 -8.04 3 -6 3 C-6 2.34 -6 1.68 -6 1 C-3 0 -3 0 0 0 Z " fill="#541D18" transform="translate(112,105)"/>
<path d="M0 0 C3.37705625 0.53725895 6.696686 1.11064623 10 2 C10 2.66 10 3.32 10 4 C11.32 4.33 12.64 4.66 14 5 C11.34624517 5.07582157 9.03909391 5.00858159 6.4375 4.4375 C3.89730609 3.98156776 2.42107512 4.19297496 0 5 C-0.33 4.34 -0.66 3.68 -1 3 C-0.34 3 0.32 3 1 3 C0.67 2.01 0.34 1.02 0 0 Z " fill="#471E1D" transform="translate(58,98)"/>
<path d="M0 0 C2 1 2 1 3 3 C2.34 3 1.68 3 1 3 C1.33 4.98 1.66 6.96 2 9 C3.32 9.33 4.64 9.66 6 10 C4.02 10 2.04 10 0 10 C0 9.34 0 8.68 0 8 C-0.66 8 -1.32 8 -2 8 C-2.125 5.125 -2.125 5.125 -2 2 C-1.34 1.34 -0.68 0.68 0 0 Z " fill="#C31719" transform="translate(12,72)"/>
<path d="M0 0 C4.71403788 0.47939368 8.66579301 0.96834048 13 3 C13 3.33 13 3.66 13 4 C9.7 4.33 6.4 4.66 3 5 C3 4.01 3 3.02 3 2 C2.01 2 1.02 2 0 2 C0 1.34 0 0.68 0 0 Z " fill="#EE0804" transform="translate(157,67)"/>
<path d="M0 0 C2.64 0 5.28 0 8 0 C8 0.66 8 1.32 8 2 C10.64 2 13.28 2 16 2 C16 2.99 16 3.98 16 5 C10.44955365 3.99082794 4.95644066 2.77560677 0 0 Z " fill="#4E1D1A" transform="translate(160,65)"/>
<path d="M0 0 C1.60495567 0.11442461 3.20898119 0.24194694 4.8125 0.375 C5.70582031 0.44460937 6.59914063 0.51421875 7.51953125 0.5859375 C10 1 10 1 13 3 C13 3.66 13 4.32 13 5 C10.36 4.67 7.72 4.34 5 4 C5 3.34 5 2.68 5 2 C3.35 1.67 1.7 1.34 0 1 C0 0.67 0 0.34 0 0 Z " fill="#BC1818" transform="translate(51,94)"/>
<path d="M0 0 C1.98 0 3.96 0 6 0 C6 0.66 6 1.32 6 2 C7.3921875 2.185625 7.3921875 2.185625 8.8125 2.375 C12 3 12 3 15 5 C11.7 5 8.4 5 5 5 C4.67 3.68 4.34 2.36 4 1 C2.68 0.67 1.36 0.34 0 0 Z " fill="#411E1C" transform="translate(28,88)"/>
<path d="M0 0 C-0.33 0.99 -0.66 1.98 -1 3 C-3.31 3.33 -5.62 3.66 -8 4 C-8 4.33 -8 4.66 -8 5 C-9.65 5 -11.3 5 -13 5 C-13 4.34 -13 3.68 -13 3 C-11.58603098 2.49242138 -10.16868271 1.99425075 -8.75 1.5 C-7.96109375 1.2215625 -7.1721875 0.943125 -6.359375 0.65625 C-4 0 -4 0 0 0 Z " fill="#30222C" transform="translate(32,89)"/>
<path d="M0 0 C-4.33542505 3.32382587 -6.47141274 4.12018668 -12 4 C-12 3.34 -12 2.68 -12 2 C-7.8794254 0.00214565 -4.54805635 -0.17835515 0 0 Z " fill="#6D1E15" transform="translate(156,90)"/>
<path d="M0 0 C2.64 0 5.28 0 8 0 C8 0.66 8 1.32 8 2 C9.32 2 10.64 2 12 2 C12 2.66 12 3.32 12 4 C12.66 4.33 13.32 4.66 14 5 C10.62294375 4.46274105 7.303314 3.88935377 4 3 C4 2.34 4 1.68 4 1 C2.68 0.67 1.36 0.34 0 0 Z " fill="#B61B18" transform="translate(64,99)"/>
<path d="M0 0 C1.32 0 2.64 0 4 0 C3.67 0.99 3.34 1.98 3 3 C0.02148438 3.29296875 0.02148438 3.29296875 -2.95703125 3.5859375 C-5.29988142 3.92665391 -5.29988142 3.92665391 -8 6 C-10.1875 5.625 -10.1875 5.625 -12 5 C-10.35 4.67 -8.7 4.34 -7 4 C-7 3.34 -7 2.68 -7 2 C-4.69 2 -2.38 2 0 2 C0 1.34 0 0.68 0 0 Z " fill="#B61C1A" transform="translate(26,66)"/>
<path d="M0 0 C-0.66 0.66 -1.32 1.32 -2 2 C-3.32 2 -4.64 2 -6 2 C-6 2.66 -6 3.32 -6 4 C-8.31 4 -10.62 4 -13 4 C-13 4.66 -13 5.32 -13 6 C-13.99 5.67 -14.98 5.34 -16 5 C-15.34 5 -14.68 5 -14 5 C-14 4.34 -14 3.68 -14 3 C-4.58997722 -0.44419134 -4.58997722 -0.44419134 0 0 Z " fill="#4C1E1A" transform="translate(32,64)"/>
<path d="M0 0 C-1.91040052 0.8680908 -3.82860737 1.71901783 -5.75 2.5625 C-6.81734375 3.03816406 -7.8846875 3.51382813 -8.984375 4.00390625 C-11.98369837 4.9946154 -13.13421241 5.16161779 -16 4 C-10.98244016 0.65496011 -5.98342129 -1.83299558 0 0 Z " fill="#CB1814" transform="translate(72,53)"/>
<path d="M0 0 C6.00333124 -0.6319296 10.63404795 1.62455877 16 4 C11.47907032 5.45606519 8.48351204 4.27032841 4 3 C4 2.34 4 1.68 4 1 C2.68 0.67 1.36 0.34 0 0 Z " fill="#5D1A19" transform="translate(46,103)"/>
<path d="M0 0 C1.32 0 2.64 0 4 0 C4 0.66 4 1.32 4 2 C7.02734375 2.68359375 7.02734375 2.68359375 10.0546875 3.3671875 C12 4 12 4 14 6 C8.94744036 5.36843005 4.70406799 3.86540627 0 2 C0 1.34 0 0.68 0 0 Z " fill="#991C1E" transform="translate(18,82)"/>
<path d="M0 0 C1.98 0 3.96 0 6 0 C2.35883227 3.33773709 -1.28607242 3.97864902 -6 5 C-6 4.01 -6 3.02 -6 2 C-4.02 2 -2.04 2 0 2 C0 1.34 0 0.68 0 0 Z " fill="#381F25" transform="translate(129,105)"/>
<path d="M0 0 C2.97 0 5.94 0 9 0 C9 0.66 9 1.32 9 2 C5.7 2.33 2.4 2.66 -1 3 C-0.67 2.01 -0.34 1.02 0 0 Z " fill="#D6120B" transform="translate(113,139)"/>
<path d="M0 0 C2.64 0 5.28 0 8 0 C8 2.64 8 5.28 8 8 C6.68 8.33 5.36 8.66 4 9 C4 8.34 4 7.68 4 7 C4.99 7 5.98 7 7 7 C6.96877057 5.03243548 6.96877057 5.03243548 6 3 C3.00384054 1.6954344 3.00384054 1.6954344 0 1 C0 0.67 0 0.34 0 0 Z " fill="#D61118" transform="translate(172,72)"/>
<path d="M0 0 C3.3 0.33 6.6 0.66 10 1 C10 1.66 10 2.32 10 3 C10.66 3.33 11.32 3.66 12 4 C4.5 3.375 4.5 3.375 0 0 Z " fill="#DC100A" transform="translate(76,102)"/>
<path d="M0 0 C7.75 -0.125 7.75 -0.125 10 1 C10 1.99 10 2.98 10 4 C6.7 3.01 3.4 2.02 0 1 C0 0.67 0 0.34 0 0 Z " fill="#E00F06" transform="translate(22,83)"/>
<path d="M0 0 C0 0.33 0 0.66 0 1 C-3.61973402 2.31626692 -6.09567131 3 -10 3 C-10 3.66 -10 4.32 -10 5 C-11.32 5 -12.64 5 -14 5 C-14 4.34 -14 3.68 -14 3 C-9.07015675 0.96006486 -5.42039575 -0.40652968 0 0 Z " fill="#EB0A05" transform="translate(170,82)"/>
<path d="M0 0 C3.96 0 7.92 0 12 0 C12 0.33 12 0.66 12 1 C10.58461283 1.33872513 9.16762037 1.67074624 7.75 2 C6.96109375 2.185625 6.1721875 2.37125 5.359375 2.5625 C3 3 3 3 -1 3 C-0.67 2.01 -0.34 1.02 0 0 Z " fill="#7D1B14" transform="translate(87,43)"/>
<path d="M0 0 C-0.99 0 -1.98 0 -3 0 C-3 0.66 -3 1.32 -3 2 C-6.22791555 4.1519437 -7.28400809 4.20086443 -11 4 C-9.68 3.34 -8.36 2.68 -7 2 C-7 1.34 -7 0.68 -7 0 C-3.86650268 -1.04449911 -3.01031744 -0.93423645 0 0 Z " fill="#4A1F1F" transform="translate(139,97)"/>
<path d="M0 0 C1.32 0 2.64 0 4 0 C4 0.66 4 1.32 4 2 C4.66 2 5.32 2 6 2 C6 2.66 6 3.32 6 4 C6.66 4.33 7.32 4.66 8 5 C6.68 5 5.36 5 4 5 C4 4.34 4 3.68 4 3 C2.68 3 1.36 3 0 3 C0 2.01 0 1.02 0 0 Z " fill="#A91E18" transform="translate(48,131)"/>
<path d="M0 0 C-0.66 0 -1.32 0 -2 0 C-2 0.66 -2 1.32 -2 2 C-4.64 2.33 -7.28 2.66 -10 3 C-10 2.34 -10 1.68 -10 1 C-3.71428571 -1.42857143 -3.71428571 -1.42857143 0 0 Z " fill="#B81A20" transform="translate(122,113)"/>
<path d="M0 0 C4.71403788 0.47939368 8.66579301 0.96834048 13 3 C13 3.33 13 3.66 13 4 C7.73946963 4.31563182 4.55426184 3.66590937 0 1 C0 0.67 0 0.34 0 0 Z " fill="#4E1C18" transform="translate(43,93)"/>
<path d="M0 0 C2.31 0 4.62 0 7 0 C7 0.66 7 1.32 7 2 C4.36 2.33 1.72 2.66 -1 3 C-0.67 2.01 -0.34 1.02 0 0 Z " fill="#212C25" transform="translate(69,106)"/>
<path d="M0 0 C3.02419525 0.58803797 6.01758453 1.22678118 9 2 C9 2.66 9 3.32 9 4 C6.75 4.25 6.75 4.25 4 4 C1.6875 2 1.6875 2 0 0 Z " fill="#901F1A" transform="translate(135,56)"/>
<path d="M0 0 C0.33 0.99 0.66 1.98 1 3 C-1.97 2.67 -4.94 2.34 -8 2 C-5.44123378 -0.55876622 -3.37797483 -1.68898741 0 0 Z " fill="#EE0901" transform="translate(70,55)"/>
<path d="M0 0 C2.64 0.33 5.28 0.66 8 1 C8 1.99 8 2.98 8 4 C5.36 3.34 2.72 2.68 0 2 C0 1.34 0 0.68 0 0 Z " fill="#9C1A1C" transform="translate(84,106)"/>
<path d="M0 0 C0.928125 0.0825 1.85625 0.165 2.8125 0.25 C1.8125 2.25 1.8125 2.25 -0.03515625 2.8828125 C-0.76605469 3.04523438 -1.49695313 3.20765625 -2.25 3.375 C-3.35021484 3.62636719 -3.35021484 3.62636719 -4.47265625 3.8828125 C-5.03855469 4.00398438 -5.60445313 4.12515625 -6.1875 4.25 C-4.36434338 1.00883268 -3.82500054 0.30000004 0 0 Z " fill="#CA1611" transform="translate(110.1875,102.75)"/>
<path d="M0 0 C-0.66 0 -1.32 0 -2 0 C-2 0.66 -2 1.32 -2 2 C-4.64 2 -7.28 2 -10 2 C-6.80505194 -1.19494806 -4.22040044 -1.35655728 0 0 Z " fill="#491D23" transform="translate(172,86)"/>
<path d="M0 0 C3.375 0.3125 3.375 0.3125 7 1 C7.66 1.99 8.32 2.98 9 4 C7.68 4 6.36 4 5 4 C5 3.34 5 2.68 5 2 C3.35 1.67 1.7 1.34 0 1 C0 0.67 0 0.34 0 0 Z " fill="#401D1F" transform="translate(139,56)"/>
<path d="M0 0 C0.99 0 1.98 0 3 0 C2.40072174 3.35595828 1.15377564 5.37801226 -1 8 C-1.04241723 5.66705225 -1.04092937 3.33297433 -1 1 C-0.67 0.67 -0.34 0.34 0 0 Z " fill="#352223" transform="translate(183,70)"/>
<path d="M0 0 C2.64 0 5.28 0 8 0 C7.360625 0.309375 6.72125 0.61875 6.0625 0.9375 C4.06389179 1.8345163 4.06389179 1.8345163 3 3 C1.33382885 3.04063832 -0.33388095 3.042721 -2 3 C-1.34 2.67 -0.68 2.34 0 2 C0 1.34 0 0.68 0 0 Z " fill="#511B1A" transform="translate(34,61)"/>
</svg>
