<svg version="1.1" id="Layer_1" xmlns="http://www.w3.org/2000/svg" xmlns:xlink="http://www.w3.org/1999/xlink" x="0px" y="0px"
	 width="100%" viewBox="0 0 95 78" enable-background="new 0 0 95 78" xml:space="preserve">
<path fill="#020000" opacity="1.000000" stroke="none" 
	d="
M76.000000,79.000000 
	C51.086422,79.000000 26.172848,79.000000 1.000000,79.000000 
	C1.000000,61.979980 1.000000,44.958649 1.185505,27.043125 
	C14.183535,30.712643 26.957766,35.389938 39.844238,39.734306 
	C42.136868,40.507210 45.118599,40.570004 47.401638,39.813065 
	C59.051098,35.950733 70.601860,31.782505 82.113930,27.523378 
	C83.726234,26.926874 84.934402,25.238029 86.329643,24.054825 
	C84.831940,22.967911 83.483620,21.474497 81.812210,20.860271 
	C71.226074,16.969990 60.497581,13.459211 49.968605,9.425073 
	C45.640263,7.766683 41.867775,7.860815 37.544556,9.439560 
	C25.447329,13.857198 13.192585,17.843491 1.000000,22.000000 
	C1.000000,15.014950 1.000000,8.029900 1.000000,1.022425 
	C32.584072,1.022425 64.168167,1.022425 95.876129,1.022425 
	C95.876129,26.999596 95.876129,52.999710 95.876129,79.000000 
	C91.258705,79.000000 86.602013,79.000000 81.077095,78.693825 
	C81.511375,72.523354 79.009468,66.101982 82.893387,60.555775 
	C83.358353,59.891800 82.656090,58.369564 82.417366,57.261837 
	C81.844147,54.601952 80.852669,51.972603 80.704338,49.293594 
	C80.425880,44.264256 80.624123,39.208527 80.624123,34.017445 
	C76.525246,34.131908 75.399071,35.599728 75.271278,38.972752 
	C75.019737,45.611835 77.008690,52.526596 73.177338,58.854496 
	C72.740852,59.575394 73.458855,61.033955 73.721519,62.131332 
	C74.243347,64.311432 75.055054,66.449936 75.321312,68.656982 
	C75.734505,72.082100 75.791824,75.550148 76.000000,79.000000 
M64.983459,53.553467 
	C71.746811,49.792664 67.990379,43.502445 69.284019,37.517967 
	C62.107841,40.052681 55.820377,42.700935 49.286900,44.407204 
	C45.838253,45.307842 41.771053,45.300362 38.317837,44.407860 
	C31.865675,42.740273 25.657524,40.128563 18.823671,37.725357 
	C18.823671,39.935829 18.830568,41.254707 18.822567,42.573498 
	C18.764723,52.107384 19.834719,53.629211 29.036572,55.948864 
	C40.980198,58.959679 52.779766,58.667339 64.983459,53.553467 
z"/>
<path fill="#FC0000" opacity="1.000000" stroke="none" 
	d="
M1.000000,22.416666 
	C13.192585,17.843491 25.447329,13.857198 37.544556,9.439560 
	C41.867775,7.860815 45.640263,7.766683 49.968605,9.425073 
	C60.497581,13.459211 71.226074,16.969990 81.812210,20.860271 
	C83.483620,21.474497 84.831940,22.967911 86.329643,24.054825 
	C84.934402,25.238029 83.726234,26.926874 82.113930,27.523378 
	C70.601860,31.782505 59.051098,35.950733 47.401638,39.813065 
	C45.118599,40.570004 42.136868,40.507210 39.844238,39.734306 
	C26.957766,35.389938 14.183535,30.712643 1.185505,26.574467 
	C1.000000,25.611111 1.000000,24.222221 1.000000,22.416666 
z"/>
<path fill="#DF0000" opacity="1.000000" stroke="none" 
	d="
M76.416664,79.000000 
	C75.791824,75.550148 75.734505,72.082100 75.321312,68.656982 
	C75.055054,66.449936 74.243347,64.311432 73.721519,62.131332 
	C73.458855,61.033955 72.740852,59.575394 73.177338,58.854496 
	C77.008690,52.526596 75.019737,45.611835 75.271278,38.972752 
	C75.399071,35.599728 76.525246,34.131908 80.624123,34.017445 
	C80.624123,39.208527 80.425880,44.264256 80.704338,49.293594 
	C80.852669,51.972603 81.844147,54.601952 82.417366,57.261837 
	C82.656090,58.369564 83.358353,59.891800 82.893387,60.555775 
	C79.009468,66.101982 81.511375,72.523354 80.604431,78.693825 
	C79.611107,79.000000 78.222221,79.000000 76.416664,79.000000 
z"/>
<path fill="#F90000" opacity="1.000000" stroke="none" 
	d="
M64.640930,53.734005 
	C52.779766,58.667339 40.980198,58.959679 29.036572,55.948864 
	C19.834719,53.629211 18.764723,52.107384 18.822567,42.573498 
	C18.830568,41.254707 18.823671,39.935829 18.823671,37.725357 
	C25.657524,40.128563 31.865675,42.740273 38.317837,44.407860 
	C41.771053,45.300362 45.838253,45.307842 49.286900,44.407204 
	C55.820377,42.700935 62.107841,40.052681 69.284019,37.517967 
	C67.990379,43.502445 71.746811,49.792664 64.640930,53.734005 
z"/>
</svg>